<svg width="22" height="24" viewBox="0 0 22 24" fill="none" xmlns="http://www.w3.org/2000/svg">
<path d="M18.1912 16.5C18.988 16.5 19.6912 15.8438 19.6912 15V5.4375C19.6912 5.25 19.5974 5.0625 19.4568 4.92188L16.2693 1.73438C16.1287 1.59375 15.9412 1.5 15.7537 1.5H10.6912C9.84741 1.5 9.19116 2.20312 9.19116 3V15C9.19116 15.8438 9.84741 16.5 10.6912 16.5H18.1912ZM20.488 3.84375C20.9099 4.26562 21.1912 4.875 21.1912 5.4375V15C21.1912 16.6875 19.8318 18 18.1912 18H10.6912C9.00366 18 7.69116 16.6875 7.69116 15V3C7.69116 1.35938 9.00366 0 10.6912 0H15.7537C16.3162 0 16.9255 0.28125 17.3474 0.703125L20.488 3.84375ZM3.19116 6H6.19116V7.5H3.19116C2.34741 7.5 1.69116 8.20312 1.69116 9V21C1.69116 21.8438 2.34741 22.5 3.19116 22.5H10.6912C11.488 22.5 12.1912 21.8438 12.1912 21V19.5H13.6912V21C13.6912 22.6875 12.3318 24 10.6912 24H3.19116C1.50366 24 0.191162 22.6875 0.191162 21V9C0.191162 7.35938 1.50366 6 3.19116 6Z" fill="#1C919C"/>
</svg>
