<svg width="25" height="24" viewBox="0 0 25 24" fill="none" xmlns="http://www.w3.org/2000/svg">
<path d="M23.1912 21V9H17.9412C16.6756 9 15.6912 8.01562 15.6912 6.75V1.5H9.69118C8.84743 1.5 8.19118 2.20312 8.19118 3V12H6.69118V3C6.69118 1.35938 8.00368 0 9.69118 0H17.0037C17.5662 0 18.1756 0.28125 18.5974 0.703125L23.9881 6.09375C24.4099 6.51562 24.6912 7.125 24.6912 7.6875V21C24.6912 22.6875 23.3318 24 21.6912 24H9.69118C8.00368 24 6.69118 22.6875 6.69118 21V17.25H8.19118V21C8.19118 21.8438 8.84743 22.5 9.69118 22.5H21.6912C22.4881 22.5 23.1912 21.8438 23.1912 21ZM23.1443 7.5C23.0974 7.40625 23.0506 7.26562 22.9568 7.17188L17.5193 1.73438C17.4256 1.64062 17.2849 1.59375 17.1912 1.54688V6.75C17.1912 7.17188 17.5193 7.5 17.9412 7.5H23.1443ZM13.9568 9.98438L18.4568 14.4844C18.7381 14.7656 18.7381 15.2812 18.4568 15.5625L13.9568 20.0625C13.6756 20.3438 13.1599 20.3438 12.8787 20.0625C12.5974 19.7812 12.5974 19.2656 12.8787 18.9844L16.1131 15.75H1.44118C1.0193 15.75 0.691177 15.4219 0.691177 15C0.691177 14.625 1.0193 14.25 1.44118 14.25H16.1131L12.8787 11.0625C12.5974 10.7812 12.5974 10.2656 12.8787 9.98438C13.1599 9.70312 13.6756 9.70312 13.9568 9.98438Z" fill="#1C919C"/>
</svg>
